<svg width="367" height="74" viewBox="0 0 367 74" fill="none" xmlns="http://www.w3.org/2000/svg">
<g clip-path="url(#clip0_11_17)">
<path d="M24.4 72H0L28.6 0H57.1L85.7 72H61.3L56.9 58.5H28.9L24.4 72ZM52.3 44L42.9 14.1H42.7C39.63 24.1 36.53 34.07 33.4 44H52.3Z" fill="black"/>
<path d="M123.3 41.8C122.97 38.53 122.17 35.93 120.9 34C119.23 31.53 116.83 30.3 113.7 30.3C110.9 30.3 108.63 31.23 106.9 33.1C105.43 34.57 104.37 36.6 103.7 39.2C103.23 41.13 103 43.13 103 45.2C103 48.87 103.6 52 104.8 54.6C106.67 58.27 109.6 60.1 113.6 60.1C116.67 60.1 119.03 59.07 120.7 57C122.16 55.07 123.03 52.33 123.3 48.8H144.8C144.13 56.73 141.2 62.77 136 66.9C130.73 71.1 123.3 73.2 113.7 73.2C103.37 73.2 95.4 70.78 89.8 65.95C84.2 61.12 81.4 54.23 81.4 45.3C81.4 36.37 84.2 29.48 89.8 24.65C95.4 19.82 103.37 17.4 113.7 17.4C123.37 17.4 130.8 19.47 136 23.6C141.2 27.73 144.13 33.8 144.8 41.8H123.3Z" fill="black"/>
<path d="M191 18.6V32.1H176.8V52.2C176.8 54.13 177.33 55.55 178.4 56.45C179.47 57.35 181.1 57.87 183.3 58C185.1 58.13 187.67 58.03 191 57.7V71.7C183.53 72.3 177.53 72.37 173 71.9C167.07 71.23 162.6 69.63 159.6 67.1C156.06 64.17 154.3 59.83 154.3 54.1V32.1H144.8V18.6H154.3V4.79999H176.8V18.6H191Z" fill="black"/>
<path d="M253.05 60.35C250.55 64.52 246.88 67.7 242.05 69.9C237.22 72.1 231.45 73.2 224.75 73.2C218.05 73.2 212.28 72.12 207.45 69.95C202.62 67.78 198.9 64.62 196.3 60.45C193.7 56.28 192.4 51.23 192.4 45.3C192.4 36.37 195.18 29.48 200.75 24.65C206.32 19.82 214.32 17.4 224.75 17.4C235.18 17.4 243.13 19.8 248.6 24.6C254.07 29.4 256.8 36.3 256.8 45.3C256.8 51.17 255.55 56.18 253.05 60.35ZM233.2 34.7C231.47 31.77 228.68 30.3 224.85 30.3C221.02 30.3 218.17 31.8 216.3 34.8C214.77 37.33 214 40.82 214 45.25C214 49.68 214.77 53.17 216.3 55.7C218.17 58.63 221.02 60.1 224.85 60.1C228.68 60.1 231.5 58.67 233.3 55.8C234.77 53.33 235.5 49.8 235.5 45.2C235.5 40.6 234.73 37.17 233.2 34.7Z" fill="black"/>
<path d="M282.6 18.6C282.27 23 281.93 27.37 281.6 31.7H282C283.2 26.57 285.97 22.73 290.3 20.2C294.17 18 298.8 17.07 304.2 17.4V33.7C300.67 33.5 297.5 33.77 294.7 34.5C291.1 35.5 288.33 37.27 286.4 39.8C284 42.8 282.8 46.87 282.8 52V72H260.3V18.6H282.6Z" fill="black"/>
<path d="M339.8 54.1C354.712 54.1 366.8 42.0117 366.8 27.1C366.8 12.1883 354.712 0.100006 339.8 0.100006C324.888 0.100006 312.8 12.1883 312.8 27.1C312.8 42.0117 324.888 54.1 339.8 54.1Z" fill="black"/>
<path d="M337.98 33.07V25.64C337.98 24.87 337.91 24.33 337.76 24C337.56 23.54 337.18 23.32 336.61 23.34C335.97 23.37 335.52 23.66 335.26 24.2C335.03 24.62 334.92 25.22 334.92 25.99V33.07H329.4V25.64C329.4 24.89 329.32 24.34 329.15 24C328.94 23.54 328.55 23.32 327.97 23.34C327.37 23.39 326.92 23.67 326.65 24.2C326.42 24.64 326.31 25.25 326.31 26.04V33.07H320.8V19.98H326.31L326.16 23.02H326.28C326.61 22.06 327.19 21.27 328.02 20.65C328.85 20.04 329.78 19.71 330.8 19.68C331.82 19.65 332.64 19.84 333.26 20.27C333.93 20.76 334.38 21.55 334.61 22.65L334.63 22.82H334.73C335.12 21.94 335.72 21.21 336.52 20.64C337.35 20.05 338.26 19.74 339.24 19.7C340.22 19.66 341.02 19.82 341.64 20.18C342.26 20.54 342.73 21.14 343.04 21.98C343.35 22.82 343.51 23.94 343.51 25.35V33.07H337.97H337.98Z" fill="white"/>
<path d="M350.14 27.43C350.21 28.31 350.42 29.01 350.78 29.51C351.22 30.13 351.87 30.44 352.72 30.44C353.42 30.44 353.97 30.23 354.36 29.8C354.7 29.44 354.92 28.95 355.02 28.33H360.24C359.91 29.98 359.12 31.23 357.87 32.08C356.62 32.93 354.9 33.35 352.71 33.35C350.18 33.35 348.23 32.76 346.86 31.57C345.5 30.39 344.81 28.7 344.81 26.51C344.81 25.07 345.15 23.83 345.84 22.78C346.49 21.77 347.42 20.99 348.61 20.46C349.8 19.93 351.18 19.66 352.75 19.66C355.28 19.66 357.18 20.24 358.45 21.41C359.72 22.58 360.35 24.27 360.35 26.5V26.7C360.35 26.91 360.35 27.15 360.33 27.41H350.13L350.14 27.43ZM354.43 23.31C354.04 22.8 353.47 22.55 352.74 22.55C352.01 22.55 351.41 22.82 350.95 23.36C350.52 23.85 350.29 24.49 350.24 25.27H355.04C355.01 24.44 354.8 23.78 354.43 23.31Z" fill="white"/>
</g>
<defs>
<clipPath id="clip0_11_17">
<rect width="366.8" height="73.2" fill="white"/>
</clipPath>
</defs>
</svg>
